# xmcd CD database file
#
# Track frame offsets:
#	150
#	15327
#	29533
#	42811
#	57113
#	76394
#	95929
#	110478
#	127662
#	141769
#	155582
#	171580
#	185350
#	204449
#	217069
#
# Disc length: 3149 seconds
#
# Revision: 2
# Processed by: cddbd v1.5.2PL0 Copyright (c) Steve Scherf et al.
# Submitted via: CDex 1.51
#
DISCID=ce0c4b0f
DTITLE=Cody Johnson - Ain't Nothin' To It
DYEAR=2019
DGENRE=Country
TTITLE0=Cody Johnson - Ain't Nothin' To It
TTITLE1=Cody Johnson - Noise
TTITLE2=Cody Johnson - Fenceposts
TTITLE3=Cody Johnson - Understand Why
TTITLE4=Cody Johnson feat. The Rockin' CJB - Long Haired Country Boy
TTITLE5=Cody Johnson - Nothin' On You
TTITLE6=Cody Johnson - Honky Tonk Mood
TTITLE7=Cody Johnson - Monday Morning Merle
TTITLE8=Cody Johnson - Y'all People
TTITLE9=Cody Johnson - Where Cowboys Are King
TTITLE10=Cody Johnson - On My Way To You
TTITLE11=Cody Johnson - Doubt Me Now
TTITLE12=Cody Johnson - Dear Rodeo
TTITLE13=Cody Johnson - Husbands And Wives (Live)
TTITLE14=Cody Johnson - His Name Is Jesus (Live)
EXTD=YEAR: 2019
EXTT0=
EXTT1=
EXTT2=
EXTT3=
EXTT4=
EXTT5=
EXTT6=
EXTT7=
EXTT8=
EXTT9=
EXTT10=
EXTT11=
EXTT12=
EXTT13=
EXTT14=
PLAYORDER=
